<?xml version="1.0" encoding="utf-8"?>
<!-- Generator: Adobe Illustrator 18.1.1, SVG Export Plug-In . SVG Version: 6.00 Build 0)  -->
<svg version="1.1" xmlns="http://www.w3.org/2000/svg" xmlns:xlink="http://www.w3.org/1999/xlink" x="0px" y="0px"
	 viewBox="0 0 280 280" enable-background="new 0 0 280 280" xml:space="preserve">
<g id="Camada_2" display="none">
</g>
<g id="Camada_1" display="none">
	<g>
		<radialGradient id="SVGID_1_" cx="203.0804" cy="87.1773" r="100.0395" gradientUnits="userSpaceOnUse">
			<stop  offset="0" style="stop-color:#FFEF26"/>
			<stop  offset="5.948725e-002" style="stop-color:#FFE000"/>
			<stop  offset="0.1303" style="stop-color:#FFD300"/>
			<stop  offset="0.2032" style="stop-color:#FECB00"/>
			<stop  offset="0.2809" style="stop-color:#FDC800"/>
			<stop  offset="0.6685" style="stop-color:#F18F34"/>
			<stop  offset="0.8876" style="stop-color:#E95F32"/>
			<stop  offset="1" style="stop-color:#E3312D"/>
		</radialGradient>
		<path display="inline" fill="url(#SVGID_1_)" d="M195.8,25.9c-33.6,0-60.8,27.2-60.8,60.8c0,12.1,3.6,23.4,9.7,32.9
			c-3.3-1.1-6.8-1.8-10.5-1.8c-17.7,0-32.1,14.4-32.1,32.1c0,6,1.6,11.5,4.4,16.3c-1.8-0.6-3.7-0.9-5.6-0.9
			c-10.1,0-18.2,8.2-18.2,18.2s8.2,18.2,18.2,18.2s18.2-8.2,18.2-18.2c0-2-0.3-4-1-5.8c4.7,2.7,10.2,4.3,16,4.3
			c17.7,0,32.1-14.4,32.1-32.1c0-3.9-0.7-7.7-2-11.2c9.2,5.6,20,8.8,31.6,8.8c33.6,0,60.8-27.2,60.8-60.8S229.4,25.9,195.8,25.9z"/>
		<radialGradient id="SVGID_2_" cx="191.8868" cy="98.4905" r="155.4977" gradientUnits="userSpaceOnUse">
			<stop  offset="0" style="stop-color:#FFEF26"/>
			<stop  offset="5.948725e-002" style="stop-color:#FFE000"/>
			<stop  offset="0.1303" style="stop-color:#FFD300"/>
			<stop  offset="0.2032" style="stop-color:#FECB00"/>
			<stop  offset="0.2809" style="stop-color:#FDC800"/>
			<stop  offset="0.6685" style="stop-color:#F18F34"/>
			<stop  offset="0.8876" style="stop-color:#E95F32"/>
			<stop  offset="1" style="stop-color:#E3312D"/>
		</radialGradient>
		<path display="inline" fill="url(#SVGID_2_)" d="M149.8,3.2C80.6,3.2,24.5,59.3,24.5,128.5c0,27.4,8.8,52.7,23.7,73.3L4.9,245.1
			l31.6,31.6l43.9-43.9c19.9,13.2,43.7,21,69.4,21c69.2,0,125.3-56.1,125.3-125.3S219,3.2,149.8,3.2z M158.6,233
			c-62,0-112.3-50.3-112.3-112.3S96.6,8.5,158.6,8.5s112.3,50.3,112.3,112.3S220.6,233,158.6,233z"/>
	</g>
</g>
<g id="Camada_4">
	
		<radialGradient id="SVGID_3_" cx="194.8755" cy="95.5102" r="133.6303" gradientTransform="matrix(0.7071 -0.7071 0.7071 0.7071 -57.9899 140)" gradientUnits="userSpaceOnUse">
		<stop  offset="0" style="stop-color:#FFFFFF"/>
		<stop  offset="0.174" style="stop-color:#FFE2A0"/>
		<stop  offset="0.3302" style="stop-color:#FDCA37"/>
		<stop  offset="0.5525" style="stop-color:#F4A135"/>
		<stop  offset="0.6636" style="stop-color:#F18F34"/>
		<stop  offset="0.8876" style="stop-color:#E95F32"/>
		<stop  offset="1" style="stop-color:#E3312D"/>
	</radialGradient>
	<path fill="url(#SVGID_3_)" d="M58.8,42.4C14,87.3,14,159.9,58.8,204.8c17.7,17.7,39.8,28.4,62.8,32.1l0,34.3h41v-35
		c21.4-4.3,41.9-14.7,58.5-31.4c44.8-44.8,44.8-117.5,0-162.3S103.7-2.4,58.8,42.4z"/>
</g>
<g id="Camada_5">
	<g>
		<path fill="#29235C" d="M70.6,91c-3.2-2.2-5.5-4.2-7-5.9c-2.5-3.1-3.9-6.3-4.2-9.6c-0.1-0.4,0-0.7,0.1-0.8
			c0.1-0.1,0.3-0.2,0.5-0.3c0.8-0.1,2.1-0.3,3.8-0.5c0.8-0.2,2.1-0.6,3.8-1c0.3,0,0.4,0,0.5,0.1c0.1,0.1,0.2,0.2,0.2,0.5
			c0.2,1.5,0.3,2.5,0.5,3c0.3,0.9,0.8,1.8,1.5,2.7c1,1.2,2.9,2.8,5.8,4.8c6.6,4.5,11.9,7.8,15.9,9.8c0.1,0.1,0.3,0.1,0.3,0.2
			c0.2,0.2,0.2,0.4-0.1,0.9c-0.3,0.4-0.7,1-1.3,1.8c-0.6,0.8-1,1.4-1.3,1.8c-0.3,0.4-0.6,1-1.1,1.8c-0.5,0.8-0.9,1.4-1.1,1.8
			c-0.3,0.4-0.6,0.4-0.9,0.2c-1.8-1.2-4.5-3.1-8-5.5C75.1,94.1,72.4,92.2,70.6,91z"/>
		<path fill="#29235C" d="M59.1,118.2c-3.4-1.1-5.8-2.9-7.3-5.7c-1.5-2.7-1.7-5.8-0.6-9.2c1-3.3,2.9-5.7,5.6-7.1
			c2.7-1.5,5.8-1.7,9-0.7c3.5,1.1,6,3,7.5,5.7c1.5,2.7,1.8,5.8,0.7,9.2c-1,3.4-2.9,5.8-5.7,7.2C65.6,119,62.5,119.2,59.1,118.2z
			 M61.4,110.8c1.2,0.4,2.3,0.3,3.5-0.1c1.1-0.5,1.9-1.3,2.2-2.4c0.4-1.2,0.2-2.3-0.5-3.3c-0.6-1-1.6-1.7-2.8-2
			c-1.2-0.4-2.4-0.3-3.4,0.1c-1.2,0.5-1.9,1.3-2.3,2.5c-0.4,1.2-0.2,2.3,0.5,3.3C59.2,109.8,60.2,110.4,61.4,110.8z"/>
		<path fill="#29235C" d="M54.7,148.3c-4.4,0.3-7.7-0.4-9.8-2.1c-2.1-1.8-3.4-4.9-3.7-9.4c-0.1-1.3,0-3.1,0.2-5.4
			c0.3-2.9,0.8-4.4,1.5-4.5c0.3,0,1.8,0.2,4.7,0.7c0.4,0.1,0.7,0.2,0.7,0.5c0,0.1,0,0.2-0.1,0.3c-1,2.5-1.4,4.8-1.3,6.8
			c0.1,1.1,0.4,2.2,1.1,3.3c0.8,1.3,1.7,1.9,2.7,1.8l1.6-0.1c-1.6-1.5-2.5-3.5-2.7-6c-0.2-2.9,0.7-5.4,2.6-7.5
			c1.9-2,4.3-3.1,7.3-3.3c3-0.2,5.5,0.5,7.6,2.1c2.2,1.7,3.4,4,3.6,6.9c0.2,2.4-0.5,4.2-2.1,5.6c-0.3,0.3-0.5,0.5-0.5,0.6
			c0,0.1,0.3,0.2,0.9,0.1c1.2-0.1,1.9,0,1.9,0.3c0,0.2,0,1.6-0.1,4.1c-0.1,2.5-0.1,3.7-0.1,3.8c-0.1,0.3-0.3,0.4-0.6,0.4
			c-1.1,0.1-2.7,0.2-4.8,0.3c-2.1,0.1-3.7,0.2-4.8,0.3c-0.6,0-1.6,0.1-2.9,0.2C56.3,148.2,55.4,148.3,54.7,148.3z M60.6,139.7
			c1.1-0.1,2.1-0.5,2.9-1.4s1.1-1.8,1-2.9c-0.1-1.1-0.6-2.1-1.5-2.7c-0.9-0.7-1.9-1-3.1-0.9c-1.1,0.1-2.1,0.5-2.9,1.4
			s-1.1,1.8-1,2.9c0.1,1.1,0.6,2.1,1.5,2.7C58.4,139.5,59.5,139.8,60.6,139.7z"/>
		<path fill="#29235C" d="M73.1,176.5c-1.1,0.5-2.6,1.4-4.7,2.6s-3.6,2.1-4.7,2.6c-0.6,0.3-1,0.2-1.3-0.3c-1-1.7-2.1-3.6-3.2-5.8
			c-0.1-0.3,0.2-0.6,0.9-1.1c0.8-0.5,1.1-0.8,1.1-0.9c-0.1-0.1-0.3-0.2-0.6-0.3c-2.4-0.8-4-2-4.9-3.8c-1.4-2.7-1.5-5.5-0.2-8.4
			c1.1-2.7,3.1-4.8,5.9-6.2c3.2-1.6,6.2-2.1,9.1-1.4c3,0.8,5.2,2.7,6.9,5.9c1.1,2.2,1.2,4.3,0.4,6.3c0,0.1-0.1,0.2,0,0.2
			c0.1,0.1,0.5,0.1,1.2-0.1c0.8-0.2,1.2-0.2,1.3,0.1c0.3,0.5,0.6,1.6,1.1,3.2c0.4,1.5,0.7,2.6,0.8,3.3c0,0.3,0,0.4-0.2,0.5
			c-0.1,0-0.2,0.1-0.5,0.2C78.7,173.9,75.9,175,73.1,176.5z M69.6,169.8c1.2-0.6,2-1.5,2.4-2.6c0.4-1.1,0.3-2.3-0.3-3.5
			c-0.6-1.2-1.5-2-2.6-2.3c-1.1-0.3-2.3-0.2-3.5,0.4c-1.1,0.6-1.9,1.5-2.3,2.7c-0.4,1.2-0.3,2.3,0.2,3.5c0.6,1.2,1.5,1.9,2.6,2.3
			C67.2,170.6,68.4,170.4,69.6,169.8z"/>
		<path fill="#29235C" d="M111.2,182.6c0.2-0.3-0.2,0.1-1.1,1.1c-1.2,1.2-2.8,2.8-4.6,4.9c-2.1,2.3-4.3,4.9-6.8,7.9
			c-4.1,5-6.9,8.6-8.4,10.9c-0.2,0.2-0.3,0.4-0.3,0.5c-0.1,0.1-0.3,0.1-0.5,0c-0.5-0.3-2.1-1.6-4.8-3.9c-0.6-0.5-0.9-1-0.8-1.3
			c0.4-0.5,0.7-1,1.1-1.4c0.1-0.1,0.1-0.2,0.1-0.4c-0.1,0-0.3,0-0.5,0c-2.4,0.2-4.5-0.5-6.4-2.1c-2.5-2.1-3.8-4.7-3.9-7.7
			c0-2.9,1-5.6,3.2-8.2c2.2-2.6,4.7-4.2,7.5-4.7c3-0.5,5.8,0.3,8.4,2.4c1.8,1.5,2.7,3.3,2.8,5.3c0,0.3,0,0.5,0.1,0.6
			c0.1,0.1,0.3,0,0.6-0.3c0.8-0.9,1.9-2.3,3.4-4.2c1.5-1.9,2.6-3.3,3.4-4.2c0.3-0.3,0.6-0.5,0.8-0.4c0.8,0.6,1.9,1.4,3.3,2.4
			c2.6,1.7,3.8,2.4,3.6,2.2C111.5,182.1,111.5,182.3,111.2,182.6z M90.6,193.5c0.8-0.9,1.2-2.1,1.1-3.3c-0.1-1.3-0.6-2.3-1.5-3.1
			c-1-0.8-2.1-1.1-3.2-0.9c-1.2,0.2-2.2,0.8-3,1.8c-0.8,1-1.2,2-1.2,3.2c0,1.2,0.5,2.2,1.4,3c1,0.8,2.1,1.1,3.3,0.9
			C88.8,195,89.8,194.5,90.6,193.5z"/>
		<path fill="#29235C" d="M126.6,209.3c-0.3,1.2-0.8,2.9-1.3,5.2c-0.5,2.3-1,4-1.3,5.2c-0.2,0.6-0.5,0.8-1.1,0.7
			c-1.9-0.4-4-1-6.4-1.7c-0.3-0.1-0.3-0.6-0.2-1.5c0.2-0.9,0.2-1.4,0-1.4c-0.1,0-0.3,0.1-0.6,0.2c-2.2,1.2-4.2,1.5-6.1,0.9
			c-2.9-0.9-5-2.7-6.2-5.6c-1.2-2.7-1.3-5.5-0.4-8.5c1-3.5,2.8-6,5.3-7.5c2.6-1.6,5.6-1.9,9-0.9c2.4,0.7,4,2.1,4.8,4.1
			c0,0.1,0.1,0.1,0.1,0.2c0.1,0,0.4-0.3,0.8-1c0.4-0.7,0.7-1,0.9-0.9c0.6,0.2,1.6,0.6,3,1.4c1.4,0.7,2.4,1.3,3,1.7
			c0.2,0.2,0.3,0.3,0.2,0.5c0,0.1-0.1,0.2-0.2,0.5C128.6,203.4,127.5,206.2,126.6,209.3z M119.3,207.2c0.4-1.3,0.3-2.4-0.3-3.5
			c-0.6-1.1-1.5-1.8-2.8-2.2c-1.3-0.4-2.5-0.3-3.5,0.3c-1,0.6-1.8,1.5-2.1,2.8c-0.4,1.2-0.3,2.4,0.3,3.5c0.6,1.1,1.5,1.9,2.7,2.2
			c1.3,0.4,2.4,0.3,3.5-0.3C118.2,209.5,118.9,208.5,119.3,207.2z"/>
		<path fill="#29235C" d="M189.7,200c0.1,0.2,0.1,0.6,0,1.1c-1,4.4-3.7,7.6-7.9,9.8c-4.3,2.2-8.6,2.5-12.8,0.9
			c-4.1-1.5-7.2-4.5-9.5-8.9c-2.1-4.2-2.7-8.5-1.6-12.7c1.1-4.5,3.8-7.7,7.9-9.8c4.5-2.3,8.8-2.7,12.7-1.2c0.4,0.2,0.7,0.4,0.8,0.6
			c0.1,0.3,0.1,1.5,0,3.7c-0.1,2.2-0.2,3.5-0.4,3.8c-0.1,0.2-0.2,0.3-0.3,0.4c-0.1,0-0.6-0.1-1.5-0.3c-1.1-0.3-2.1-0.4-3-0.4
			c-1.4,0-2.7,0.3-3.9,0.9c-2,1-3.3,2.6-3.8,4.8c-0.4,2-0.1,4,1,6.1c1.1,2.1,2.5,3.6,4.4,4.5c2,0.9,4.1,0.9,6.1-0.1
			c1.2-0.6,2.2-1.5,3-2.5c0.5-0.7,1-1.6,1.4-2.6c0.3-0.8,0.6-1.3,0.6-1.3c0.1-0.1,0.3-0.1,0.5,0c0.3,0.1,1.4,0.7,3.1,1.7
			C188.7,199.2,189.7,199.8,189.7,200z"/>
		<path fill="#29235C" d="M204.5,173c1.2,1,1.5,2,1,2.9c-0.1,0.1-1,1.5-2.8,4c-1.1,1.5-2.7,3.7-4.9,6.7c0.9,0.5,1.9,0.5,3.1,0
			c0.9-0.4,1.8-1,2.5-1.9c0.9-1,1.6-2.3,1.9-3.9c0.1-0.7,0.2-1.4,0.3-2.1c0.3-0.1,1.3,0,2.9,0.3c1.6,0.4,2.5,0.7,2.8,0.9
			c0.1,0.1,0.1,0.3,0.2,0.6c0.3,2.8-0.9,5.7-3.5,8.7c-2.5,2.8-5.2,4.3-8.4,4.6c-3.2,0.3-6.2-0.8-9-3.2c-2.7-2.4-4.2-5.1-4.6-8.2
			c-0.4-3.2,0.6-6.1,3-8.8c2-2.3,4.5-3.4,7.5-3.6S202.2,171.1,204.5,173z M198,178.3c-0.7-0.6-1.6-0.9-2.6-0.9c-1,0-1.8,0.4-2.5,1.1
			c-0.6,0.7-0.9,1.6-0.7,2.7c0.2,1,0.7,1.8,1.4,2.4c0.3,0.3,0.6,0.3,0.9-0.1c0.8-0.9,1.8-2.3,3.1-4.4
			C198.1,178.7,198.1,178.4,198,178.3z"/>
		<path fill="#29235C" d="M211.3,153.4c0.6,0.2,0.7,0.7,0.4,1.3c-0.1,0.3-0.3,0.7-0.6,1.2c-0.3,0.5-0.5,0.9-0.6,1.1
			c-0.5,1.2-0.7,2.1-0.5,2.7c0.2,0.6,0.8,1.1,2,1.6c0.6,0.3,1.6,0.7,2.8,1.2s2.2,0.9,2.8,1.2c0.4,0.2,1,0.4,1.9,0.7
			c0.8,0.3,1.5,0.5,1.9,0.7c0.3,0.2,0.4,0.5,0.3,1c-0.2,0.7-0.7,1.8-1.3,3.2c-0.6,1.4-1.1,2.4-1.6,3.2c-0.3,0.4-0.6,0.6-1,0.4
			c-1.1-0.5-2.9-1.3-5.1-2.3c-2.3-1-4-1.8-5.1-2.3c-3.4-1.5-6.3-2.4-8.7-2.7c-0.1,0-0.3-0.1-0.3-0.1c-0.2-0.1-0.3-0.3-0.3-0.5
			c0.3-0.8,0.6-2,1-3.7c0.6-2.5,0.8-3.7,0.9-3.8c0.1-0.3,0.6-0.2,1.6,0.1c0.9,0.3,1.4,0.4,1.5,0.2c-0.1,0.2-0.2-0.6-0.4-2.3
			c-0.1-1.7,0.1-3.2,0.6-4.5c0.4-0.8,0.7-1.1,1-1c0.4,0.2,1,0.5,1.7,0.9c0.8,0.4,1.3,0.8,1.7,0.9c0.4,0.2,1,0.4,1.7,0.7
			C210.4,153,211,153.3,211.3,153.4z"/>
		<path fill="#29235C" d="M222.4,134.8c0.5,0.1,1.2,0.2,2.1,0.5c0.9,0.3,1.6,0.4,2,0.5c0.4,0.1,0.7,0.2,0.8,0.3
			c0.1,0.1,0.2,0.4,0.4,0.8c0.8,2.2,1,4.5,0.6,6.9c-0.7,4.5-2.8,6.4-6.2,5.9c-1-0.2-2.5-0.4-4.6-0.8c-2-0.4-3.6-0.7-4.6-0.8
			c-0.7-0.1-1.1,0.2-1.2,1c0,0.1,0,0.2,0,0.3c0,0.1,0,0.2,0,0.3c-0.1,0.6-0.3,0.8-0.8,0.8c-0.2,0-0.6-0.1-1.1-0.2
			c-0.5-0.1-0.9-0.2-1.1-0.2c-0.3-0.1-0.8-0.1-1.5-0.2c-0.7-0.1-1.2-0.1-1.5-0.2c-0.3,0-0.4-0.6-0.3-1.6c0.1-0.6,0-0.9-0.3-1
			c-0.6-0.2-1.5-0.4-2.8-0.5c-2-0.2-3-0.4-2.9-0.4c-1.8-0.3-2.7-0.6-2.6-0.9c0.1-0.4,0.3-1,0.6-1.7c0.3-0.8,0.5-1.4,0.6-1.8
			c0.2-0.8,0.6-1.9,1-3.5c0.1-0.4,0.3-0.6,0.5-0.5c0.6,0.1,1.5,0.3,2.8,0.6c1.2,0.3,2.2,0.5,2.8,0.6c0.8,0.1,1.2,0,1.2-0.5
			c0.1-0.5,0.2-1.4,0.3-2.5c0.1-1.1,0.2-1.9,0.3-2.5c0.1-0.3,0.2-0.5,0.4-0.5c0.4,0.1,0.9,0.2,1.6,0.4c0.7,0.2,1.2,0.3,1.6,0.4
			c0.4,0.1,0.9,0.1,1.6,0.2s1.3,0.2,1.6,0.2c0.3,0.1,0.5,0.3,0.4,0.7c0,0.3-0.1,0.8-0.3,1.5c-0.1,0.7-0.2,1.2-0.3,1.5l-0.3,1.7
			c0,0.2,0.3,0.4,1,0.5c0.4,0.1,0.9,0.1,1.6,0.3c0.7,0.1,1.3,0.2,1.6,0.2c1.3,0.2,2.2,0.2,2.8,0c0.7-0.3,1.2-1.1,1.4-2.3
			c0.1-0.4,0.1-1,0-1.7c-0.1-0.7-0.1-1.3,0-1.6C221.9,134.9,222.1,134.8,222.4,134.8z"/>
		<path fill="#29235C" d="M214.1,105.3c1.2-0.2,2.9-0.6,5.3-1.1s4.1-0.9,5.2-1.1c0.6-0.1,1,0.1,1.1,0.6c0.5,1.9,0.9,4.1,1.4,6.5
			c0.1,0.3-0.4,0.6-1.2,0.8c-0.9,0.3-1.3,0.5-1.3,0.6c0.1,0.1,0.2,0.3,0.5,0.4c2,1.4,3.2,3.1,3.6,5.1c0.5,3-0.2,5.7-2.2,8.1
			c-1.9,2.3-4.4,3.6-7.4,4.2c-3.6,0.6-6.6,0.2-9.1-1.4c-2.6-1.6-4.2-4.1-4.8-7.6c-0.4-2.4,0.1-4.5,1.5-6.2c0.1-0.1,0.1-0.1,0.1-0.2
			c0-0.1-0.4-0.2-1.2-0.3s-1.2-0.2-1.2-0.4c-0.1-0.6-0.1-1.7-0.1-3.3c0-1.6,0.1-2.7,0.2-3.4c0.1-0.2,0.2-0.4,0.3-0.4
			c0.1,0,0.2,0,0.5,0C208,106.1,210.9,105.8,214.1,105.3z M215.5,112.7c-1.3,0.2-2.3,0.8-3,1.8c-0.7,1-0.9,2.1-0.7,3.4
			c0.2,1.3,0.8,2.3,1.8,3c1,0.7,2.1,0.9,3.5,0.7c1.2-0.2,2.2-0.8,3-1.9c0.7-1,1-2.1,0.8-3.4c-0.2-1.3-0.8-2.3-1.8-3
			C218,112.7,216.8,112.5,215.5,112.7z"/>
		<path fill="#29235C" d="M192.7,97.3c2.5-1.3,5-2.3,7.5-3c2.6-0.6,5.1-1.2,7.7-1.8c0.6-0.1,1.1,0.3,1.6,1.3
			c0.6,1.1,0.7,1.9,0.3,2.2c-3.8,3.6-6,5.5-6.6,5.9c-0.6,0.3-1.4,0.7-2.6,1.2c-1.2,0.5-2,0.9-2.6,1.2c-0.6,0.3-1.6,0.8-2.8,1.5
			c-1.2,0.7-2.2,1.2-2.8,1.5c-0.5,0.3-0.8,0.3-1,0c-0.2-0.4-0.5-1-0.8-1.8c-0.3-0.8-0.6-1.4-0.8-1.8c-0.2-0.4-0.5-1-1-1.7
			c-0.5-0.8-0.8-1.3-1-1.7C187.7,100,189.3,99,192.7,97.3z M213.3,86.7c1.2-0.6,2.3-0.7,3.5-0.4c1.1,0.3,2,1.1,2.6,2.2
			c0.6,1.2,0.7,2.3,0.3,3.4c-0.4,1.1-1.2,2-2.4,2.6c-1.2,0.6-2.3,0.7-3.4,0.4c-1.1-0.3-2-1.1-2.6-2.3c-0.6-1.2-0.7-2.3-0.3-3.4
			C211.4,88.1,212.2,87.3,213.3,86.7z"/>
	</g>
</g>
<g id="Camada_3" display="none">
	<path display="inline" fill="#FFFFFF" d="M251.4,139c0-3.3-1.4-6.4-3.6-8.5c0.8-1.6,1.4-3.4,1.4-5.4c0-2.8-0.9-5.4-2.5-7.5
		c0.2-0.9,0.3-1.8,0.3-2.7c0-3.5-1.5-6.6-3.8-8.8c0.8-1.6,1.3-3.4,1.3-5.3c0-4.1-2-7.7-5.2-9.9c2.1-2.2,3.4-5.1,3.4-8.4
		c0-6.6-5.4-12-12-12c-0.8,0-1.7,0.1-2.5,0.3c0-0.1,0-0.2,0-0.3c0-6.6-5.4-12-12-12c-6.6,0-12,5.4-12,12c0,3.5,1.5,6.6,3.8,8.8
		c-0.1,0.2-0.2,0.5-0.3,0.7c-2.2-2-5.1-3.3-8.3-3.3c-2.6,0-4.9,0.8-6.9,2.2c-0.7-0.1-1.4-0.2-2.2-0.2c-4.5,0-8.4,2.4-10.4,6.1
		c-0.5-0.1-1-0.1-1.6-0.1c-4.2,0-7.9,2.1-10,5.4c-1.6-0.8-3.4-1.2-5.2-1.2c-1.8,0-3.5,0.4-5.1,1.1c-0.4-6.3-5.6-11.2-12-11.2
		c-2.3,0-4.4,0.7-6.3,1.8c-1-5.6-5.9-9.9-11.8-9.9c-0.7,0-1.4,0.1-2.1,0.2C124.9,65,120,60.6,114,60.6c-1.3,0-2.5,0.2-3.7,0.6
		c-0.8-5.9-5.8-10.5-11.9-10.5c-0.3,0-0.7,0-1,0.1c-0.9-5.7-5.9-10.1-11.9-10.1c-4.5,0-8.4,2.5-10.5,6.2c-0.9-0.2-1.9-0.4-2.9-0.4
		c-6.6,0-12,5.4-12,12c0,0,0,0,0,0c-0.3,0-0.6,0-0.8,0c-6.6,0-12,5.4-12,12c0,1.7,0.3,3.2,0.9,4.7c-5.1,1.4-8.9,6-8.9,11.6
		c0,3.1,1.2,5.9,3,8c-6.6,0-12,5.4-12,12c0,2.3,0.7,4.5,1.8,6.4c-3,2.2-4.9,5.7-4.9,9.7c0,5.5,3.7,10.1,8.7,11.5
		c-2.1,2.2-3.4,5.1-3.4,8.4c0,4.6,2.5,8.5,6.3,10.6c-1.7,2.1-2.8,4.8-2.8,7.7c0,5.4,3.6,10,8.5,11.5c-0.5,1.4-0.9,2.9-0.9,4.4
		c0,6.3,4.8,11.4,10.9,12c-0.1,0.7-0.2,1.3-0.2,2c0,6.6,5.4,12,12,12c0.5,0,0.9,0,1.3-0.1c0,0.1,0,0.1,0,0.2c0,6.6,5.4,12,12,12
		c0.9,0,1.9-0.1,2.7-0.3c1.6,4.8,6.1,8.3,11.4,8.3c2.3,0,4.4-0.6,6.2-1.7c1.7,4.5,6.1,7.7,11.2,7.7c2,0,3.8-0.5,5.5-1.3
		c1.8,4.3,6.1,7.4,11.1,7.4c1.3,0,2.5-0.2,3.6-0.6c1.5,4.9,6.1,8.4,11.5,8.4c5.3,0,9.8-3.4,11.4-8.1c0.8,0.2,1.7,0.3,2.6,0.3
		c4.2,0,7.9-2.1,10-5.4c1.6,0.8,3.4,1.2,5.2,1.2c4.5,0,8.4-2.4,10.4-6.1c0.5,0.1,1,0.1,1.6,0.1c5.5,0,10.2-3.8,11.6-8.9
		c1.4,0.5,2.8,0.8,4.4,0.8c6.6,0,12-5.4,12-12c0,0,0-0.1,0-0.1c4.4-0.8,7.9-3.9,9.3-8c6.3-0.4,11.3-5.6,11.3-12c0-1.4-0.2-2.7-0.7-4
		c5.9-0.7,10.5-5.8,10.5-11.9c0-0.5,0-0.9-0.1-1.4c2.4-2.2,3.8-5.3,3.8-8.8c0-3-1.1-5.7-2.9-7.8c0,0,0,0,0,0c0-0.2,0-0.5,0-0.7
		C248.1,148.6,251.4,144.2,251.4,139z"/>
</g>
</svg>
